<svg xmlns="http://www.w3.org/2000/svg" width="1440" height="990" viewBox="0 0 1440 990">
    <defs>
        <linearGradient id="a" x1="1.748%" x2="98.252%" y1="0%" y2="100%">
            <stop offset="0%" stop-color="#FEB692"/>
            <stop offset="100%" stop-color="#EA5455"/>
        </linearGradient>
        <linearGradient id="b" x1="33.358%" x2="66.642%" y1="0%" y2="100%">
            <stop offset="0%" stop-color="#EE9AE5"/>
            <stop offset="100%" stop-color="#5961F9"/>
        </linearGradient>
        <linearGradient id="c" x1="33.371%" x2="66.629%" y1="0%" y2="100%">
            <stop offset="0%" stop-color="#EE9AE5"/>
            <stop offset="100%" stop-color="#5961F9"/>
        </linearGradient>
        <linearGradient id="d" x1="33.371%" x2="66.629%" y1="0%" y2="100%">
            <stop offset="0%" stop-color="#EE9AE5"/>
            <stop offset="100%" stop-color="#5961F9"/>
        </linearGradient>
        <linearGradient id="e" x1="0%" y1="24.657%" y2="75.343%">
            <stop offset="0%" stop-color="#FFE985"/>
            <stop offset="100%" stop-color="#FA742B"/>
        </linearGradient>
        <linearGradient id="f" x1="56.997%" x2="14.718%" y1="42.695%" y2="82.051%">
            <stop offset="0%" stop-color="#ABDCFF"/>
            <stop offset="100%" stop-color="#0396FF"/>
        </linearGradient>
        <linearGradient id="g" x1="0%" y1="29.498%" y2="70.502%">
            <stop offset="0%" stop-color="#ABDCFF"/>
            <stop offset="100%" stop-color="#0396FF"/>
        </linearGradient>
        <linearGradient id="h" x1="0%" y1="28.033%" y2="71.967%">
            <stop offset="0%" stop-color="#ABDCFF"/>
            <stop offset="100%" stop-color="#0396FF"/>
        </linearGradient>
        <linearGradient id="i" x1="5.477%" x2="112.749%" y1="43.614%" y2="50%">
            <stop offset="0%" stop-color="#F97794"/>
            <stop offset="100%" stop-color="#623AA2"/>
        </linearGradient>
        <linearGradient id="j" x1="5.477%" x2="112.749%" y1="43.434%" y2="50%">
            <stop offset="0%" stop-color="#F97794"/>
            <stop offset="100%" stop-color="#623AA2"/>
        </linearGradient>
        <linearGradient id="k" x1="5.477%" x2="112.749%" y1="43.322%" y2="50%">
            <stop offset="0%" stop-color="#F97794"/>
            <stop offset="100%" stop-color="#623AA2"/>
        </linearGradient>
        <linearGradient id="l" x1="27.232%" x2="72.768%" y1="0%" y2="100%">
            <stop offset="0%" stop-color="#79F1A4"/>
            <stop offset="100%" stop-color="#0E5CAD"/>
        </linearGradient>
        <linearGradient id="m" x1="0%" y1="27.454%" y2="72.546%">
            <stop offset="0%" stop-color="#FF9D6C"/>
            <stop offset="100%" stop-color="#BB4E75"/>
        </linearGradient>
    </defs>
    <g fill="none" fill-rule="evenodd">
        <g fill="url(#a)" transform="rotate(-44 242.271 294.738)">
            <path d="M150.621 189.748c25.735-26.237-14.072-58.077 2.3-84.864 12.83-20.992 43.373-29.971 28.517-61.313C161.14.747-8.03 29.93 14.07 97.95c22.101 68.02 95.532 133.615 136.55 91.797z"/>
            <path d="M158.621 189.748c25.735-26.237-14.072-58.077 2.3-84.864 12.83-20.992 43.373-29.971 28.517-61.313C169.14.747-.03 29.93 22.07 97.95c22.101 68.02 95.532 133.615 136.55 91.797z" opacity=".5"/>
            <path d="M165.621 189.748c25.735-26.237-14.072-58.077 2.3-84.864 12.83-20.992 43.373-29.971 28.517-61.313C176.14.747 6.97 29.93 29.07 97.95c22.101 68.02 95.532 133.615 136.55 91.797z" opacity=".25"/>
        </g>
        <path fill="url(#b)" d="M45.69 360.242C123.952 388.674 223 308.354 223 195.337S214.497 2 115.965 2C17.432 2 72.63 95.825 62.81 166.905c-9.82 71.08-95.38 164.905-17.12 193.337z" transform="rotate(14 -759.566 5865.967)"/>
        <path fill="url(#c)" d="M39.69 359.31C117.952 387.751 217 307.4 217 194.34S208.497.931 109.965.931C11.432.931 66.63 94.792 56.81 165.899c-9.82 71.107-95.38 164.967-17.12 193.41z" opacity=".5" transform="rotate(14 -759.566 5865.967)"/>
        <path fill="url(#d)" d="M32.99 358.557c77.888 28.307 176.465-51.66 176.465-164.182 0-112.521-8.462-192.49-106.526-192.49-98.063 0-43.127 93.415-52.901 164.183-9.774 70.768-94.926 164.182-17.038 192.49z" opacity=".25" transform="rotate(14 -759.566 5865.967)"/>
        <g fill="url(#e)" transform="matrix(1 0 0 -1 994 1061)">
            <ellipse cx="121.5" cy="86.5" rx="121.5" ry="86.5"/>
            <ellipse cx="121.5" cy="94.5" opacity=".5" rx="121.5" ry="86.5"/>
            <ellipse cx="121.5" cy="102.5" opacity=".25" rx="121.5" ry="86.5"/>
        </g>
        <path fill="url(#f)" d="M33.73 7.754c11.206.083 8.737 24.03 20.273 39.801 11.535 15.77 12.864 24.043 4.924 29.954-11.991 8.926-30.38 4.804-39.4-22.315-9.992-30.048-7.286-47.6 14.203-47.44z" transform="scale(1 -1) rotate(25 825.843 500.513)"/>
        <path fill="url(#g)" d="M61.453 62.15c-143.803 68-27.193 416 265.916 416 264.54 0 401.38-215.165 333.293-312.77-53.27-76.363-170.1-18.291-301.345-41.744C228.072 100.183 183.131 4.612 61.453 62.15z" transform="translate(350 74)"/>
        <path fill="url(#h)" d="M63.903 34.23C-83.293 106.28 36.07 475 336.094 475c270.784 0 410.852-227.976 341.159-331.393-54.527-80.91-174.114-19.38-308.456-44.23C234.455 74.528 188.452-26.733 63.903 34.231z" opacity=".5" transform="translate(350 74)"/>
        <path fill="url(#h)" d="M79.903 19.23C-67.293 91.28 52.07 460 352.094 460c270.784 0 410.852-227.976 341.159-331.393-54.527-80.91-174.114-19.38-308.456-44.23C250.455 59.528 204.452-41.733 79.903 19.231z" opacity=".25" transform="translate(350 74)"/>
        <g>
            <path fill="url(#i)" d="M152.685 151.705c-154.501-2.972-151.408 197.99 6.3 198.95 113.565.69 211.542 138.472 282.867 133.19 126.235-9.346 71.244-167.641 106.857-141.77 117.622 85.446 246.604-15.91 135.698-92.376-73.986-51.012-111.943 27.458-294.988 23.389-183.046-4.07-127.874-119.289-236.734-121.383z" transform="rotate(18 -1468.008 505.818)"/>
            <path fill="url(#j)" d="M157.526 140.144c-154.5-2.972-151.407 197.991 6.3 198.95 113.566.691 211.542 138.472 282.868 133.191 126.235-9.346 71.243-167.642 106.857-141.77 117.622 85.446 229.668-2.126 130.151-82.21-69.763-56.142-106.396 17.292-289.442 13.222-183.045-4.069-127.874-119.288-236.734-121.383z" opacity=".5" transform="rotate(18 -1469.013 489.224)"/>
            <path fill="url(#k)" d="M158.93 130.962c-154.5-2.972-151.407 197.991 6.3 198.95 113.566.691 211.543 138.472 282.868 133.191 126.235-9.346 71.244-167.642 106.857-141.77 117.622 85.446 227.778-4.546 116.872-81.012-73.986-51.011-93.117 16.094-276.162 12.024-183.046-4.07-127.874-119.288-236.734-121.383z" opacity=".25" transform="rotate(18 -1472.043 476.2)"/>
        </g>
        <g fill="url(#l)" transform="translate(826.398 585.426)">
            <path d="M13.62 95.42c13.79 27.065 49.703 36.404 80.212 20.858 30.51-15.545 44.064-50.088 30.273-77.153-13.79-27.065-43.057-16.22-67.466 8.563C32.23 72.47-.17 68.355 13.621 95.42z"/>
            <path d="M13.62 88.42c13.79 27.065 49.703 36.404 80.212 20.858 30.51-15.545 44.064-50.088 30.273-77.153-13.79-27.065-43.057-16.22-67.466 8.563C32.23 65.47-.17 61.355 13.621 88.42z" opacity=".5"/>
            <path d="M13.62 82.42c13.79 27.065 49.703 36.404 80.212 20.858 30.51-15.545 44.064-50.088 30.273-77.153C110.315-.94 81.048 9.905 56.64 34.688 32.23 59.47-.17 55.355 13.621 82.42z" opacity=".25"/>
        </g>
        <g fill="url(#m)" transform="translate(1087)">
            <path d="M138.313 124c56 0 71-57 47.963-72.966C163.238 35.068 147.31 0 99.313 0 51.317 0 28.242 29.712 13.191 51.034 3.547 64.696 55.07 53.8 74.313 70c23 19.364 20.003 54 64 54z"/>
            <path fill-opacity=".5" d="M134.313 129c56 0 71-57 47.963-72.966C159.238 40.068 143.31 5 95.313 5 47.317 5 24.242 34.712 9.191 56.034-.453 69.696 51.07 58.8 70.313 75c23 19.364 20.003 54 64 54z"/>
            <path fill-opacity=".25" d="M126.313 129c56 0 71-57 47.963-72.966C151.238 40.068 135.31 5 87.313 5 39.317 5 16.242 34.712 1.191 56.034-8.453 69.696 43.07 58.8 62.313 75c23 19.364 20.003 54 64 54z"/>
        </g>
    </g>
</svg>
