<svg xmlns="http://www.w3.org/2000/svg" width="24" height="24" viewBox="0 0 24 24">
    <g fill="none" fill-rule="evenodd" opacity=".7">
        <path d="M0 0h24v24H0z"/>
        <g fill-rule="nonzero">
            <path d="M11.043 12.822c2.372 0 4.212-2.64 4.212-4.91v-.756c0-2.292-1.89-4.156-4.212-4.156C8.72 3 6.83 4.864 6.83 7.156v.755c0 2.271 1.84 4.911 4.213 4.911zM13.784 17.739l3.023-2.982a21.027 21.027 0 0 0-5.764-.801c-2.51 0-4.567.448-5.852.825C3.881 15.166 3 16.331 3 17.679v1.565a.38.38 0 0 0 .383.378h10.019l.382-1.883zM14.106 20l.383-1.889 4.279-4.22a1.094 1.094 0 0 1 1.532 0 1.058 1.058 0 0 1 0 1.51l-4.279 4.221-1.915.378z"/>
            <path fill="#000" d="M21 2.26V20H3V2.26z" opacity=".5"/>
        </g>
    </g>
</svg>
