<svg xmlns="http://www.w3.org/2000/svg" width="135" height="31" viewBox="0 0 135 31">
    <defs>
        <linearGradient id="a" x1="0%" y1="47.558%" y2="52.442%">
            <stop offset="0%" stop-color="#F97794"/>
            <stop offset="100%" stop-color="#623AA2"/>
        </linearGradient>
    </defs>
    <g fill="none" fill-rule="evenodd" transform="translate(-4 -11)">
        <path fill="url(#a)" fill-rule="nonzero" d="M4.099 11.924h8.824c1.372 0 2.682.133 3.928.4 1.247.266 2.353.715 3.32 1.347a6.92 6.92 0 0 1 2.31 2.526c.575 1.053.862 2.35.862 3.895 0 1.628-.308 2.975-.924 4.042-.616 1.066-1.408 1.908-2.374 2.526a9.72 9.72 0 0 1-3.173 1.305 15.27 15.27 0 0 1-3.277.379H7.628v13.389h-3.53v-29.81zm3.53 13.136h5.966c1.765 0 3.2-.4 4.307-1.2 1.106-.8 1.66-2.042 1.66-3.726 0-1.684-.554-2.926-1.66-3.726-1.107-.8-2.542-1.2-4.307-1.2H7.628v9.852zm25.139-13.136h3.53v26.525H49.91v3.284H32.768v-29.81zm34.425 0h3.32L83.16 41.733h-4.118l-3.025-7.326H61.142l-3.067 7.326h-3.992l13.11-29.81zm1.597 4.547h-.084l-6.177 14.652h12.143L68.79 16.47zm25.98 12.42L83.675 11.924h4.496l8.362 13.473 8.614-13.473h4.244L98.299 28.89v12.842h-3.53V28.89zm28.248-16.967h3.32l12.647 29.809h-4.118l-3.025-7.326h-14.875l-3.067 7.326h-3.992l13.11-29.81zm1.596 4.547h-.084l-6.176 14.652h12.143l-5.883-14.652z"/>
        <circle cx="96.507" cy="14.905" r="2.981" fill="#914D9E"/>
    </g>
</svg>
