<svg xmlns="http://www.w3.org/2000/svg" width="138" height="155" viewBox="0 0 138 155">
    <g fill="none" fill-rule="evenodd" opacity=".7">
        <path d="M-26-20h192v192H-26z"/>
        <g fill-rule="nonzero" opacity=".25">
            <path fill="#111" d="M128.347 81.667L64.336 17.455a2.382 2.382 0 0 0-1.687-.7H5.386A2.39 2.39 0 0 0 3 19.147V76.59c0 .635.252 1.244.7 1.692l64.01 64.212a11.918 11.918 0 0 0 16.87 0l43.767-43.903c4.65-4.677 4.65-12.248 0-16.924zM38.789 64.623c-6.588 0-11.93-5.358-11.93-11.967 0-6.61 5.342-11.967 11.93-11.967 6.59 0 11.93 5.357 11.93 11.967 0 3.174-1.257 6.218-3.494 8.462a11.911 11.911 0 0 1-8.436 3.505z"/>
            <path fill="#111" d="M62.65 9.574a9.46 9.46 0 0 1 6.747 2.805l61.13 61.322 6.664-6.685-64.71-64.912A7.147 7.147 0 0 0 67.422 0H14.93a2.39 2.39 0 0 0-2.386 2.393v7.18h50.105z"/>
            <path fill="#111" stroke="#FFF" stroke-width="5" d="M33 92c-16.569 0-30 13.431-30 30 0 16.569 13.431 30 30 30 16.569 0 30-13.431 30-30-.019-16.56-13.44-29.981-30-30z"/>
            <path fill="#FFF" d="M35.621 103l-1.31 26.862H31.69L30.379 103zM33 141a3 3 0 1 1 0-6 3 3 0 0 1 0 6z"/>
        </g>
    </g>
</svg>
