<svg xmlns="http://www.w3.org/2000/svg" xmlns:xlink="http://www.w3.org/1999/xlink" width="16" height="16" viewBox="0 0 16 16">
    <defs>
        <path id="a" d="M13.262.545H2.738A2.195 2.195 0 0 0 .545 2.738v10.525c0 1.208.984 2.192 2.193 2.192h10.525a2.195 2.195 0 0 0 2.192-2.192V2.738c0-1.21-.984-2.193-2.193-2.193zm1.315 12.717c0 .725-.59 1.315-1.315 1.315H2.738c-.725 0-1.315-.59-1.315-1.315v-1.586L4.96 7.743l4.78 4.346 2.644-2.203 2.193 1.827v1.549zm0-2.69l-2.192-1.827-2.62 2.182L4.9 6.502l-3.477 3.863V2.738c0-.725.59-1.315 1.315-1.315h10.525c.725 0 1.315.59 1.315 1.315v7.834zm-3.507-3.45a2.195 2.195 0 0 0 2.193-2.192c0-1.21-.984-2.193-2.193-2.193A2.195 2.195 0 0 0 8.877 4.93c0 1.21.983 2.193 2.193 2.193zm0-3.507a1.317 1.317 0 1 1-1.316 1.316c0-.726.59-1.316 1.316-1.316z"/>
    </defs>
    <g fill="none" fill-rule="evenodd">
        <path d="M0 0h16v16H0z"/>
        <mask id="b" fill="#fff">
            <use xlink:href="#a"/>
        </mask>
        <use fill="#000" fill-rule="nonzero" xlink:href="#a"/>
        <g fill="#2F4858" mask="url(#b)">
            <path d="M0 0h16v16H0z"/>
        </g>
    </g>
</svg>
