<svg xmlns="http://www.w3.org/2000/svg" width="24" height="24" viewBox="0 0 24 24">
    <g fill="none" fill-rule="evenodd">
        <path d="M0 0h24v24H0z"/>
        <path fill="#39BCD5" d="M16 14.907c0 .813-.3 1.484-.902 2.013-.6.53-1.44.862-2.519 1V20h-1.14v-2c-.66 0-1.3-.052-1.919-.156-.618-.105-1.125-.25-1.52-.435V16.01c.49.221 1.053.402 1.693.543a8.2 8.2 0 0 0 1.746.21v-3.945c-1.208-.388-2.056-.84-2.542-1.354-.486-.514-.729-1.177-.729-1.99 0-.783.299-1.426.897-1.928.598-.502 1.39-.807 2.374-.914V5h1.14v1.614c1.084.03 2.13.25 3.138.663l-.46 1.175a8.871 8.871 0 0 0-2.678-.628v3.891c.925.3 1.618.59 2.077.875.46.284.799.61 1.017.977.218.368.327.814.327 1.34zm-1.503.117c0-.43-.13-.779-.393-1.045-.262-.266-.77-.53-1.525-.793v3.488c1.279-.18 1.918-.73 1.918-1.65zM9.662 9.456c0 .454.132.819.398 1.094.265.275.725.535 1.379.78V7.86c-.584.096-1.026.283-1.326.56-.3.278-.451.624-.451 1.036z"/>
    </g>
</svg>
