<svg xmlns="http://www.w3.org/2000/svg" width="8" height="15" viewBox="0 0 8 15">
    <g fill="none" fill-rule="evenodd">
        <path d="M-8-5h24v24H-8z"/>
        <path fill="#FFF" d="M8 9.907c0 .813-.3 1.484-.902 2.013-.6.53-1.44.862-2.519 1V15h-1.14v-2c-.66 0-1.3-.052-1.919-.156-.618-.105-1.125-.25-1.52-.435V11.01c.49.221 1.053.402 1.693.543a8.2 8.2 0 0 0 1.746.21V7.818C2.23 7.43 1.383 6.978.897 6.464.411 5.95.168 5.287.168 4.474c0-.783.299-1.426.897-1.928.598-.502 1.39-.807 2.374-.914V0h1.14v1.614c1.084.03 2.13.25 3.138.663l-.46 1.175a8.871 8.871 0 0 0-2.678-.628v3.891c.925.3 1.618.59 2.077.875.46.284.799.61 1.017.977.218.368.327.814.327 1.34zm-1.503.117c0-.43-.13-.779-.393-1.045-.262-.266-.77-.53-1.525-.793v3.488c1.279-.18 1.918-.73 1.918-1.65zM1.662 4.456c0 .454.132.819.398 1.094.265.275.725.535 1.379.78V2.86c-.584.096-1.026.283-1.326.56-.3.278-.451.624-.451 1.036z"/>
    </g>
</svg>
