<svg xmlns="http://www.w3.org/2000/svg" xmlns:xlink="http://www.w3.org/1999/xlink" width="36" height="36" viewBox="0 0 36 36">
    <defs>
        <path id="a" d="M18 12c-.414 0-5.252 3.821-5.252 4.199 0 .377.7 1.273 1.113 1.273.414 0 3.725-2.052 4.139-2.052.414 0 5.377 5.474 5.792 5.474H25.5v-5.45s-.339-.024-.752-.024C24.334 15.42 18.75 12 18 12zM6 13.367v10.95h1.522c1.23 0 2.227-.997 2.227-2.227v-6.497c0-1.23-.997-2.226-2.227-2.226H6zm9.103 0c-.827 0-3.725 2.053-4.139 2.053h-.466v5.474h.466c.414 0 1.242.968 1.242.968l2.897 2.64s.568.498 1.396.498 1.087-.497 1.087-.497.336.497 1.163.497c1.031 0 1.318-.872 1.318-.872s.23.189.932.189c1.125 0 1.137-.944 1.137-.944s.413.258.828.258c.66 0 1.035-.636 1.035-1.014 0-.695-.336-1.234-.558-1.512-.359-.242-1.047-.912-2.827-2.722a134.5 134.5 0 0 0-1.755-1.764c-.55-.537-.8-.748-.911-.831-.33.127-1.216.616-1.824.95-1.535.847-1.99 1.076-2.263 1.076-.22 0-.576-.107-1.011-.628-.112-.135-.477-.604-.477-.987 0-.168.061-.33.875-1.059a40.86 40.86 0 0 1 1.724-1.44c.111-.09.223-.175.333-.261a.496.496 0 0 0-.202-.072zm11.146 2.226v6.497c0 1.23.997 2.227 2.226 2.227H30v-10.95h-1.525c-1.23 0-2.226.997-2.226 2.226z"/>
    </defs>
    <g fill="none" fill-rule="evenodd">
        <path d="M0 0h36v36H0z"/>
        <mask id="b" fill="#fff">
            <use xlink:href="#a"/>
        </mask>
        <use fill="#FFF" fill-rule="nonzero" xlink:href="#a"/>
        <g fill="#2F4858" mask="url(#b)">
            <path d="M0 0h36v36H0z"/>
        </g>
    </g>
</svg>
