<svg xmlns="http://www.w3.org/2000/svg" xmlns:xlink="http://www.w3.org/1999/xlink" width="24" height="24" viewBox="0 0 24 24">
    <defs>
        <path id="a" d="M6.427 9.648v5.13H8.57v1.407H7.142v1.408H8.57V19h-5V9.647C1.506 9.041 0 7.157 0 4.926 0 2.206 2.239 0 5 0s5 2.205 5 4.926c0 2.231-1.507 4.116-3.573 4.722zM5 4.927c.789 0 1.428-.63 1.428-1.408 0-.777-.64-1.407-1.428-1.407-.79 0-1.429.63-1.429 1.407 0 .778.64 1.408 1.429 1.408z"/>
    </defs>
    <g fill="none" fill-rule="evenodd">
        <path d="M0 0h24v24H0z"/>
        <g transform="translate(7 2)">
            <mask id="b" fill="#fff">
                <use xlink:href="#a"/>
            </mask>
            <g fill="#00BCD4" mask="url(#b)">
                <path d="M-7-2h24v24H-7z"/>
            </g>
        </g>
    </g>
</svg>
