<svg xmlns="http://www.w3.org/2000/svg" xmlns:xlink="http://www.w3.org/1999/xlink" width="20" height="16" viewBox="0 0 20 16">
    <defs>
        <path id="a" d="M19.625.8l-.792-.8L11.5 7.41a2.397 2.397 0 0 1-3.375 0L.792.043 0 .842l5.458 5.516L0 11.874l.792.8L6.25 7.158l1.083 1.095C8 8.926 8.875 9.305 9.792 9.305c.916 0 1.791-.379 2.458-1.052l1.083-1.095 5.459 5.516.791-.8-5.458-5.516L19.625.8"/>
        <path id="b" d="M18.208 13.41H1.75c-.958 0-1.75-.8-1.75-1.768V-.232C0-1.2.792-2 1.75-2h16.458c.959 0 1.75.8 1.75 1.768v11.874c0 .968-.791 1.768-1.75 1.768zM1.708-.863a.573.573 0 0 0-.583.59V11.6c0 .336.25.589.583.589h16.459a.573.573 0 0 0 .583-.59V-.273c0-.337-.25-.59-.583-.59H1.708z"/>
    </defs>
    <g fill="none" fill-rule="evenodd">
        <path d="M-2-4h24v24H-2z"/>
        <g transform="translate(0 2)">
            <use fill="#FFF" fill-rule="nonzero" xlink:href="#a"/>
            <mask id="c" fill="#fff">
                <use xlink:href="#b"/>
            </mask>
            <g fill="#FFF" mask="url(#c)">
                <path d="M-2-6h24v24H-2z"/>
            </g>
        </g>
    </g>
</svg>
