<svg xmlns="http://www.w3.org/2000/svg" xmlns:xlink="http://www.w3.org/1999/xlink" width="24" height="24" viewBox="0 0 24 24">
    <defs>
        <path id="a" d="M21.625 6.8l-.792-.8-7.333 7.41a2.397 2.397 0 0 1-3.375 0L2.792 6.043l-.792.8 5.458 5.516L2 17.874l.792.8 5.458-5.516 1.083 1.095c.667.673 1.542 1.052 2.459 1.052.916 0 1.791-.379 2.458-1.052l1.083-1.095 5.459 5.516.791-.8-5.458-5.516 5.5-5.558"/>
        <path id="b" d="M20.208 19.41H3.75c-.958 0-1.75-.8-1.75-1.768V5.768C2 4.8 2.792 4 3.75 4h16.458c.959 0 1.75.8 1.75 1.768v11.874c0 .968-.791 1.768-1.75 1.768zM3.708 5.137a.573.573 0 0 0-.583.59V17.6c0 .336.25.589.583.589h16.459a.573.573 0 0 0 .583-.59V5.727c0-.337-.25-.59-.583-.59H3.708z"/>
    </defs>
    <g fill="none" fill-rule="evenodd">
        <path d="M0 0h24v24H0z"/>
        <use fill="#39BCD5" fill-rule="nonzero" xlink:href="#a"/>
        <mask id="c" fill="#fff">
            <use xlink:href="#b"/>
        </mask>
        <g fill="#39BCD5" mask="url(#c)">
            <path d="M0 0h24v24H0z"/>
        </g>
    </g>
</svg>
