<svg xmlns="http://www.w3.org/2000/svg" width="16" height="16" viewBox="0 0 16 16">
    <g fill="none" fill-rule="evenodd">
        <path d="M-4-4h24v24H-4z"/>
        <g transform="translate(.667 .667)">
            <path d="M0 0h14.667v14.667H0z"/>
            <circle cx="12.907" cy="6.453" r="1" fill="#FFF" fill-rule="nonzero"/>
            <path stroke="#FFF" stroke-linecap="round" stroke-width=".88" d="M11.733 4.693V.587h-8.8v4.106M11.733 8.8v5.867h-8.8V8.8z"/>
            <path stroke="#FFF" stroke-linecap="round" stroke-width=".88" d="M3.227 12.32H1.173a.599.599 0 0 1-.586-.61V5.303c0-.336.262-.61.586-.61H14.08c.324 0 .587.274.587.61v6.407c0 .337-.263.61-.587.61h-2.053M10.56 10.56H4.693M9.387 11.733H4.693M10.56 12.907H4.693"/>
        </g>
    </g>
</svg>
