<svg xmlns="http://www.w3.org/2000/svg" width="36" height="36" viewBox="0 0 36 36">
    <g fill="none" fill-rule="evenodd">
        <path d="M0 0h36v36H0z"/>
        <g transform="translate(7 7)">
            <path d="M0 0h22v22H0z"/>
            <circle cx="19.36" cy="9.68" r="1" fill="#39BCD5" fill-rule="nonzero"/>
            <path stroke="#39BCD5" stroke-linecap="round" stroke-width=".88" d="M17.6 7.04V.88H4.4v6.16M17.6 13.2V22H4.4v-8.8z"/>
            <path stroke="#39BCD5" stroke-linecap="round" stroke-width=".88" d="M4.84 18.48H1.76c-.486 0-.88-.41-.88-.915v-9.61c0-.505.394-.915.88-.915h19.36c.486 0 .88.41.88.915v9.61c0 .505-.394.915-.88.915h-3.08M15.84 15.84h-8.8M14.08 17.6H7.04M15.84 19.36h-8.8"/>
        </g>
    </g>
</svg>
