<svg xmlns="http://www.w3.org/2000/svg" width="24" height="24" viewBox="0 0 24 24">
    <g fill="none" fill-rule="evenodd">
        <path d="M0 0h24v24H0z"/>
        <path fill="#39BCD5" fill-rule="nonzero" d="M18.107 13.146c.033-.267.058-.538.058-.813 0-.275-.025-.546-.058-.812l1.74-1.38a.42.42 0 0 0 .098-.533L18.3 6.721a.404.404 0 0 0-.501-.18l-2.048.838a6.22 6.22 0 0 0-1.39-.82l-.307-2.209a.425.425 0 0 0-.412-.35h-3.289a.417.417 0 0 0-.407.35l-.308 2.208a6.066 6.066 0 0 0-1.39.821l-2.047-.837a.409.409 0 0 0-.501.179L4.055 9.608a.421.421 0 0 0 .099.534l1.735 1.379a6.628 6.628 0 0 0-.058.812c0 .275.025.546.058.813l-1.735 1.379a.42.42 0 0 0-.099.533L5.7 17.946c.102.179.316.254.501.179l2.048-.837c.423.329.888.608 1.39.82l.307 2.209c.033.195.202.35.407.35h3.29a.417.417 0 0 0 .406-.35l.309-2.209a6.066 6.066 0 0 0 1.39-.82l2.047.837c.185.07.398 0 .501-.18l1.645-2.887a.421.421 0 0 0-.099-.533l-1.735-1.38zm-6.11 2.104c-1.59 0-2.877-1.304-2.877-2.917 0-1.612 1.287-2.916 2.878-2.916 1.591 0 2.878 1.304 2.878 2.916 0 1.613-1.287 2.917-2.878 2.917z" opacity=".75"/>
    </g>
</svg>
